<svg xmlns="http://www.w3.org/2000/svg" version="1.1" xmlns:xlink="http://www.w3.org/1999/xlink" xmlns:svgjs="http://svgjs.dev/svgjs" width="1440" height="560" preserveAspectRatio="none" viewBox="0 0 1440 560"><g mask="url(&quot;#SvgjsMask1011&quot;)" fill="none"><rect width="1440" height="560" x="0" y="0" fill="rgba(225, 141, 155, 1)"></rect><path d="M 0,110 C 57.6,122.6 172.8,184.4 288,173 C 403.2,161.6 460.8,36 576,53 C 691.2,70 748.8,261 864,258 C 979.2,255 1036.8,34.4 1152,38 C 1267.2,41.6 1382.4,228.4 1440,276L1440 560L0 560z" fill="rgba(234, 153, 176, 1)"></path><path d="M 0,438 C 57.6,432.2 172.8,384.6 288,409 C 403.2,433.4 460.8,564.6 576,560 C 691.2,555.4 748.8,400.2 864,386 C 979.2,371.8 1036.8,503.6 1152,489 C 1267.2,474.4 1382.4,348.2 1440,313L1440 560L0 560z" fill="rgba(248, 214, 223, 1)"></path></g><defs><mask id="SvgjsMask1011"><rect width="1440" height="560" fill="#ffffff"></rect></mask></defs></svg>